<?xml version="1.0" encoding="utf-8"?>
<!-- Generator: Adobe Illustrator 16.0.0, SVG Export Plug-In . SVG Version: 6.00 Build 0)  -->
<!DOCTYPE svg PUBLIC "-//W3C//DTD SVG 1.1//EN" "http://www.w3.org/Graphics/SVG/1.1/DTD/svg11.dtd">
<svg version="1.1" id="Layer_1" xmlns="http://www.w3.org/2000/svg" xmlns:xlink="http://www.w3.org/1999/xlink" x="0px" y="0px"
	 width="4051px" height="4051px" viewBox="0 0 4051 4051" style="enable-background:new 0 0 4051 4051;" xml:space="preserve">
<path d="M199.9,278.7c-2.8-33.7-2.2-52.5,0-86c30.8-1.9,53.4-1.5,83.7,0v86H199.9z"/>
<path d="M602.4,278.7c-1.1-17.8-6.3-73,2.5-85l7.4-1c24.7-0.8,49.9-0.2,74.6,0c0.3,22.3,10.3,83.7-12.3,86
	C650.2,279.4,626.7,279.1,602.4,278.7z"/>
<path d="M996.4,278.7c-0.9-26.9-0.1-58.7,0-86h84.1v86H996.4z"/>
<path d="M1793.5,278.7c-0.3-13-4-80.2,0-86c30.3-0.8,56.8-0.9,87.1,0c-1.1,12.8,0,86,0,86H1793.5z"/>
<path d="M3783.2,278.7c-1.2-24-13.1-83.3,13.1-86c23.1-0.7,46.4-0.2,69.5,0c0.9,18.5,5.9,72.7-2.2,84.8l-9.9,1.1H3783.2z"/>
<path d="M1391.9,278.7c-1.7-30.9-1.2-55.4,0-86h85.3c-0.7,29.2-0.4,56.8,0,86H1391.9z"/>
<path d="M2194.8,278.7v-86h85.4c1,30,0.8,55.9,0,86H2194.8z"/>
<path d="M2593.5,278.7v-86h84.8v86H2593.5z"/>
<path d="M2983.7,278.7c-2.8-31.8-1.7-54.5,0-86h85.1v86H2983.7z"/>
<path d="M3385.4,278.7v-86h85.7v86H3385.4z"/>
<path d="M1391.9,730.4c0.2-26-2.3-62.5,0-87.1h85.3c-0.4,29.1,0.4,58.1,0,87.1H1391.9z"/>
<path d="M199.9,730.4c-1.7-31.4-1.4-56,0-87.1h83.7v87.1H199.9z"/>
<path d="M602.4,730.4c0.9-28.2,0.1-58.7,0-87.1h84.5c-0.2,26.4,2,61.8,0,87.1H602.4z"/>
<path d="M1793.5,730.4c-0.4-29.4-0.4-57.8,0-87.1h87.1v87.1H1793.5z"/>
<path d="M2194.8,730.4v-87.1h85.4v87.1H2194.8z"/>
<path d="M3385.4,730.4c1.3-32.4,1.2-55,0-87.1h85.7v87.1C3442.6,729.8,3413.9,730.2,3385.4,730.4z"/>
<path d="M3783.2,730.4v-87.1c28.4-0.8,54.2-0.6,82.6,0v87.1C3836.5,731.5,3812.6,731.3,3783.2,730.4z"/>
<path d="M996.4,730.4v-87.1c29.5,0.9,54.6,0.8,84.1,0v87.1H996.4z"/>
<path d="M2593.5,730.4v-87.1h84.8c1.9,31.6,1.2,55.8,0,87.1C2649.3,729.4,2622.3,729.9,2593.5,730.4z"/>
<path d="M2983.7,730.4v-87.1h85.1v87.1H2983.7z"/>
<path d="M602.4,1184c-0.9-32-1.2-58.8,0-90.8h84.5v90.8H602.4z"/>
<path d="M996.4,1184c0.3-30.3,0.2-60.4,0-90.8h84.1c-0.4,30.1-0.1,60.7,0,90.8H996.4z"/>
<path d="M1391.9,1184c-0.7-30.9-0.5-59.8,0-90.8h85.3v90.8H1391.9z"/>
<path d="M1793.5,1184v-90.8c28.7-0.4,58.3,0,87.1,0c-0.2,16.4,3.1,82.3,0,90.8C1857.2,1185.6,1818.1,1184.2,1793.5,1184z"/>
<path d="M2194.8,1184c1.4-34.3,1.5-56.9,0-90.8h85.4v90.8H2194.8z"/>
<path d="M2593.5,1184v-90.8c28.5-0.5,56.3-0.3,84.8,0c-3,37.5-2.9,53.5,0,90.8C2650.1,1183.5,2621.6,1183.8,2593.5,1184z"/>
<path d="M2983.7,1184c2.6-36.1,2.2-55.1,0-90.8h85.1v90.8H2983.7z"/>
<path d="M3385.4,1184c-0.3-30.4-0.7-60.4,0-90.8h85.7v90.8H3385.4z"/>
<path d="M3783.2,1184v-90.8h82.6c-1,31.7-0.8,59,0,90.8H3783.2z"/>
<path d="M199.9,1184v-90.8h83.7v90.8H199.9z"/>
<path d="M199.9,1545h26.9h56.8c0.1,44.5,16.1,88.3-23.7,88.9h-60C199.1,1602.7,198.8,1576.2,199.9,1545z"/>
<path d="M1391.9,1633.9V1545h85.3v88.9C1470.2,1635.5,1403.8,1634,1391.9,1633.9z"/>
<path d="M1793.5,1545h28.6c19.2,0.4,39.2,0.1,58.5,0v88.9h-27.7h-59.4V1545z"/>
<path d="M2194.8,1633.9V1545h85.4v88.9H2194.8z"/>
<path d="M2593.5,1633.9V1545c28.8-1.2,56-0.6,84.8,0v88.9H2593.5z"/>
<path d="M2983.7,1633.9c0.8-30.5,0.5-58.4,0-88.9h85.1v88.9H2983.7z"/>
<path d="M3385.4,1633.9c1.7-33.8,1.7-55.5,0-88.9h85.7v88.9C3442.8,1633.1,3413.8,1633.7,3385.4,1633.9z"/>
<path d="M3783.2,1633.9V1545h82.6v88.9H3783.2z"/>
<path d="M602.4,1633.9V1545h84.5v88.9H602.4z"/>
<path d="M996.4,1633.9V1545h84.1v88.9H996.4z"/>
<path d="M199.9,2085.9c-0.7-28.3-0.3-56.1,0-84.4h83.7v84.4H199.9z"/>
<path d="M602.4,2085.9c-1-30.3-1.1-54.1,0-84.4c27.5-0.9,56.9-0.2,84.5,0v84.4H602.4z"/>
<path d="M996.4,2085.9c2-32.5,1.7-52.4,0-84.4h84.1v84.4H996.4z"/>
<path d="M1391.9,2085.9c-0.7-28.4-0.3-56,0-84.4h85.3v84.4H1391.9z"/>
<path d="M1793.5,2085.9v-84.4h87.1v84.4H1793.5z"/>
<path d="M2194.8,2085.9c1.2-31.8,1.2-52.6,0-84.4h85.4v84.4H2194.8z"/>
<path d="M2593.5,2085.9v-84.4h84.8v84.4H2593.5z"/>
<path d="M2983.7,2085.9v-84.4h85.1v84.4H2983.7z"/>
<path d="M3385.4,2085.9c1.4-31.5,1.3-53.2,0-84.4h85.7v84.4H3385.4z"/>
<path d="M3783.2,2085.9v-84.4c26.5-1,55.9-0.1,82.6,0c-0.5,28.1-0.2,56.3,0,84.4H3783.2z"/>
<path d="M602.4,2536.8c-0.8-30.2-0.8-56,0-86.2h84.5c1.2,28.5,0.4,57.6,0,86.2C657.2,2537.5,632.1,2538,602.4,2536.8z"/>
<path d="M1793.5,2536.8c-0.6-16.6-4.3-73.3,2.1-85.2l5.9-1c27.8-0.9,51.2-0.8,79,0c0,17.1,2.8,73.5-2.4,85.3l-6.6,0.9
	C1844.1,2537.6,1821.1,2537.7,1793.5,2536.8z"/>
<path d="M3385.4,2536.8c-0.3-17.4-2.8-72.2,3.2-84.9l5.9-1.3c27.9-1.1,48.7-1.1,76.6,0c1.1,19.8,3.2,66.9-1.3,84l-5.3,2.2
	C3437.8,2536.1,3412.2,2536.4,3385.4,2536.8z"/>
<path d="M199.9,2536.8c0.9-28.5,0.2-57.6,0-86.2h83.7v86.2H199.9z"/>
<path d="M996.4,2536.8v-86.2h84.1c2.8,32.9,1.9,53.7,0,86.2H996.4z"/>
<path d="M1391.9,2536.8v-86.2h85.3c1.1,29.1,0.5,57.1,0,86.2H1391.9z"/>
<path d="M2194.8,2536.8v-86.2h85.4c1.2,30.7,1.1,55.5,0,86.2H2194.8z"/>
<path d="M2593.5,2536.8v-86.2c28.1,0.5,56.6,0.1,84.8,0v86.2H2593.5z"/>
<path d="M2983.7,2536.8c-1.3-19.1-13.2-80.9,9.6-86.2c27.6,1,47.8,1.2,75.6,0c-0.2,17.3,4,74.2-2.3,85.3l-8,0.9
	C3032.5,2537.5,3009.5,2537.3,2983.7,2536.8z"/>
<path d="M3783.2,2536.8v-86.2h82.6v86.2H3783.2z"/>
<path d="M602.4,2993.4c1.8-33.1,1.5-54.8,0-87.4h84.5c1.3,29.7,0.6,57.8,0,87.4H602.4z"/>
<path d="M996.4,2993.4c-0.8-29-0.3-58.4,0-87.4h84.1c0.4,28.8,0,58.6,0,87.4H996.4z"/>
<path d="M1391.9,2993.4c-1.2-44.4-17.1-85.7,24.1-87.4c20.2,1,41,0.3,61.2,0c0,47,17.7,87-23.1,87.4
	C1433.6,2993.1,1412.4,2993.4,1391.9,2993.4z"/>
<path d="M1793.5,2993.4V2906h87.1v87.4H1793.5z"/>
<path d="M2194.8,2993.4V2906h85.4v87.4H2194.8z"/>
<path d="M2593.5,2993.4c-2.3-33.1-2.5-54.4,0-87.4c28.6,0.6,56.2,0.4,84.8,0v87.4H2593.5z"/>
<path d="M2983.7,2993.4c-0.4-29.4-0.3-58.1,0-87.4h85.1c2.9,34.7,2.8,52.6,0,87.4H2983.7z"/>
<path d="M3385.4,2993.4c-3.9-36.3-2.9-51.2,0-87.4h85.7v87.4H3385.4z"/>
<path d="M3783.2,2993.4c-2.1-32.6-2.4-54.9,0-87.4h82.6v87.4H3783.2z"/>
<path d="M199.9,2993.4V2906h83.7c2.3,29.3,1.2,58.2,0,87.4H199.9z"/>
<path d="M199.9,3440.2c-0.9-26.8-0.1-58.3,0-85.4c30-1.7,53.8-1.9,83.7,0c1.9,30.7,1.3,55.1,0,85.4H199.9z"/>
<path d="M602.4,3440.2c-0.6-28.2-0.1-57.1,0-85.4h84.5c-0.1,26.1,2,60.2,0,85.4C657.9,3439.1,631.3,3439.6,602.4,3440.2z"/>
<path d="M996.4,3440.2c-2.5-32.4-2-53.3,0-85.4h84.1c-0.7,29.2-0.5,56.2,0,85.4C1051.9,3439.5,1025,3439.7,996.4,3440.2z"/>
<path d="M1793.5,3440.2c-1.4-35.3-15.8-85.3,19.3-85.4c24.7-1,43.1-0.9,67.8,0c-0.2,17.1,4.4,76.5-0.7,85.4l-8.2,0
	C1842.4,3441.4,1822.7,3442.1,1793.5,3440.2z"/>
<path d="M1391.9,3440.2c-0.6-28-0.1-57.2,0-85.4h85.3v85.4H1391.9z"/>
<path d="M2194.8,3447.3v-92.4h85.4v92.4H2194.8z"/>
<path d="M2593.5,3447.3c-1.8-31.2-1.1-61.3,0-92.4c36,3.1,48.4,3.4,84.8,0c-0.2,26,2.4,68.7,0,92.4
	C2647.1,3449.3,2624.5,3449.2,2593.5,3447.3z"/>
<path d="M2983.7,3447.3v-92.4h85.1c-2.1,36-2.1,56.7,0,92.4C3038.9,3449.8,3013.3,3448.9,2983.7,3447.3z"/>
<path d="M3783.2,3365.2h53.8h28.8c-0.7,28.1-0.5,54,0,82.1h-54.7h-27.9V3365.2z"/>
<path d="M3385.4,3447.3v-82.1h85.7c-1.1,30-1.3,52.1,0,82.1H3385.4z"/>
<path d="M602.4,3886c1.8-33.1,1.4-55.3,0-88.1h84.5v88.1H602.4z"/>
<path d="M996.4,3886v-88.1h84.1v88.1H996.4z"/>
<path d="M1391.9,3886c0.9-29.6,0.4-58.5,0-88.1h85.3v88.1C1449.2,3886.5,1420,3886,1391.9,3886z"/>
<path d="M1793.5,3886c-1.3-30.7-0.7-57.5,0-88.1h87.1v88.1H1793.5z"/>
<path d="M2194.8,3886v-88.1h85.4v88.1H2194.8z"/>
<path d="M2593.5,3886c-0.9-30.4-1.6-57.8,0-88.1h84.8c1.2,30.7,0.7,57.4,0,88.1H2593.5z"/>
<path d="M2983.7,3886c-0.7-30-0.5-58.1,0-88.1c28.3,0.8,56.8,0.3,85.1,0c0.5,29.7,0.3,58.4,0,88.1H2983.7z"/>
<path d="M3385.4,3886c0.3-22.6-2.8-69.5,0-88.1c21.5,1.5,62.6,0,85.7,0c-0.5,29.4-0.2,58.8,0,88.1H3385.4z"/>
<path d="M3783.2,3886v-88.1c27.3-0.4,55.2,0,82.6,0c0.9,31.1,1,57,0,88.1H3783.2z"/>
<path d="M199.9,3886v-88.1h83.7v88.1H199.9z"/>
</svg>
